<?xml version="1.0" standalone="no"?>
<!DOCTYPE svg PUBLIC "-//W3C//DTD SVG 20010904//EN"
 "http://www.w3.org/TR/2001/REC-SVG-20010904/DTD/svg10.dtd">
<svg version="1.0" xmlns="http://www.w3.org/2000/svg"
 width="512.000000pt" height="512.000000pt" viewBox="0 0 512.000000 512.000000"
 preserveAspectRatio="xMidYMid meet">

<g transform="translate(0.000000,512.000000) scale(0.100000,-0.100000)"
fill="#000000" stroke="none">
<path d="M2345 4629 c-301 -32 -624 -143 -882 -302 -913 -567 -1245 -1751
-757 -2707 345 -676 1013 -1104 1774 -1137 975 -41 1854 616 2095 1566 121
479 68 985 -150 1426 -205 416 -539 750 -950 951 -349 170 -752 243 -1130 203z
m303 -656 c14 -10 35 -32 46 -47 21 -27 21 -39 24 -664 l2 -637 314 -315 c340
-340 338 -338 321 -427 -9 -49 -69 -109 -118 -118 -90 -17 -84 -22 -461 353
-194 194 -354 361 -362 379 -12 27 -14 151 -14 702 0 450 3 679 11 698 14 37
47 72 84 89 40 19 119 12 153 -13z"/>
</g>
</svg>
